<svg width="56" height="56" viewBox="0 0 56 56" fill="none" xmlns="http://www.w3.org/2000/svg">
<g filter="url(#filter0_d_489_483)">
<rect x="4" y="4" width="48" height="48" rx="18" fill="white"/>
</g>
<path d="M23.5814 39.8213C22.7271 39.8213 22.1893 39.3361 22.1998 38.5029L22.4002 27.2494C22.4002 26.8592 22.2631 26.6166 21.9361 26.4689C20.5967 25.8783 20.0061 25.2455 20.0904 23.4525L20.3646 17.3354C20.3963 16.8818 20.66 16.6076 21.0818 16.6076C21.4932 16.6076 21.7357 16.8924 21.7357 17.3459L21.6619 23.2943C21.6619 23.6529 21.8834 23.8744 22.2104 23.8744C22.5584 23.8744 22.7904 23.6635 22.7904 23.326L22.8959 17.1666C22.9064 16.7236 23.1596 16.46 23.5814 16.46C24.0033 16.46 24.2564 16.7236 24.267 17.1666L24.3725 23.326C24.3725 23.6635 24.6045 23.8744 24.942 23.8744C25.2795 23.8744 25.501 23.6529 25.501 23.2943L25.4271 17.3459C25.4271 16.8924 25.6697 16.6076 26.0811 16.6076C26.5029 16.6076 26.7666 16.8818 26.7877 17.3354L27.0725 23.4525C27.1463 25.2455 26.5662 25.8783 25.2268 26.4689C24.8998 26.6166 24.7521 26.8592 24.7627 27.2494L24.9525 38.5029C24.9631 39.3256 24.4357 39.8213 23.5814 39.8213ZM31.4494 31.0463C31.4705 30.6771 31.3123 30.4029 30.9537 30.1498L30.3947 29.7807C29.8674 29.4221 29.6143 28.9264 29.6143 28.2197V27.7029C29.6143 23.7162 30.7111 19.4025 32.3143 17.135C32.6518 16.6709 32.9049 16.46 33.2846 16.46C33.6643 16.46 34.0123 16.7131 34.0123 17.2299V38.5557C34.0123 39.3678 33.485 39.8213 32.6096 39.8213C31.7658 39.8213 31.2174 39.3361 31.249 38.4607L31.4494 31.0463Z" fill="#00A1F1"/>
<defs>
<filter id="filter0_d_489_483" x="0.4" y="0.4" width="55.2" height="55.2" filterUnits="userSpaceOnUse" color-interpolation-filters="sRGB">
<feFlood flood-opacity="0" result="BackgroundImageFix"/>
<feColorMatrix in="SourceAlpha" type="matrix" values="0 0 0 0 0 0 0 0 0 0 0 0 0 0 0 0 0 0 127 0" result="hardAlpha"/>
<feOffset/>
<feGaussianBlur stdDeviation="1.8"/>
<feComposite in2="hardAlpha" operator="out"/>
<feColorMatrix type="matrix" values="0 0 0 0 0 0 0 0 0 0 0 0 0 0 0 0 0 0 0.2 0"/>
<feBlend mode="normal" in2="BackgroundImageFix" result="effect1_dropShadow_489_483"/>
<feBlend mode="normal" in="SourceGraphic" in2="effect1_dropShadow_489_483" result="shape"/>
</filter>
</defs>
</svg>
