<svg width="98" height="98" viewBox="0 0 98 98" fill="none" xmlns="http://www.w3.org/2000/svg">
<g filter="url(#filter0_d_525_2431)">
<path d="M49 94C73.8528 94 94 73.8528 94 49C94 24.1472 73.8528 4 49 4C24.1472 4 4 24.1472 4 49C4 73.8528 24.1472 94 49 94Z" fill="white"/>
</g>
<path d="M49 87C69.9868 87 87 69.9868 87 49C87 28.0132 69.9868 11 49 11C28.0132 11 11 28.0132 11 49C11 69.9868 28.0132 87 49 87Z" fill="#FFECA5" stroke="#FFD63B" stroke-width="1.5" stroke-miterlimit="10"/>
<path d="M33 58C36.866 58 40 54.866 40 51C40 47.134 36.866 44 33 44C29.134 44 26 47.134 26 51C26 54.866 29.134 58 33 58Z" fill="#FFCA00"/>
<path d="M64 58C67.866 58 71 54.866 71 51C71 47.134 67.866 44 64 44C60.134 44 57 47.134 57 51C57 54.866 60.134 58 64 58Z" fill="#FFCA00"/>
<path d="M50.5 49C50.5 50.1046 49.6046 51 48.5 51C47.3954 51 46.5 50.1046 46.5 49C46.5 47.8954 47.3954 47 48.5 47C49.6046 47 50.5 47.8954 50.5 49Z" fill="#00A1F1" stroke="#00A1F1"/>
<path d="M42 43L44.7504 44.8336C44.8691 44.9128 44.8691 45.0872 44.7504 45.1664L42 47" stroke="#111111" stroke-linecap="round"/>
<path d="M55 47L52.2496 45.1664C52.1309 45.0872 52.1309 44.9128 52.2496 44.8336L55 43" stroke="#111111" stroke-linecap="round"/>
<path d="M43 53.4545C43 53.2035 43.2035 53 43.4545 53H53.5455C53.7965 53 54 53.2035 54 53.4545C54 55.9649 51.9649 58 49.4545 58H47.5455C45.0351 58 43 55.9649 43 53.4545Z" fill="#111111"/>
<defs>
<filter id="filter0_d_525_2431" x="0" y="0" width="98" height="98" filterUnits="userSpaceOnUse" color-interpolation-filters="sRGB">
<feFlood flood-opacity="0" result="BackgroundImageFix"/>
<feColorMatrix in="SourceAlpha" type="matrix" values="0 0 0 0 0 0 0 0 0 0 0 0 0 0 0 0 0 0 127 0" result="hardAlpha"/>
<feOffset/>
<feGaussianBlur stdDeviation="2"/>
<feComposite in2="hardAlpha" operator="out"/>
<feColorMatrix type="matrix" values="0 0 0 0 0 0 0 0 0 0 0 0 0 0 0 0 0 0 0.25 0"/>
<feBlend mode="normal" in2="BackgroundImageFix" result="effect1_dropShadow_525_2431"/>
<feBlend mode="normal" in="SourceGraphic" in2="effect1_dropShadow_525_2431" result="shape"/>
</filter>
</defs>
</svg>
