<svg width="56" height="56" viewBox="0 0 56 56" fill="none" xmlns="http://www.w3.org/2000/svg">
<g filter="url(#filter0_d_489_467)">
<rect x="4" y="4.3999" width="48" height="48" rx="18" fill="white"/>
</g>
<path d="M16.3076 20.9462C16.3076 18.958 17.9194 17.3462 19.9076 17.3462H36.0922C38.0805 17.3462 39.6922 18.958 39.6922 20.9462V38.1769C39.6922 39.9131 38.2565 41.323 36.4884 41.323H19.5114C17.7434 41.323 16.3076 39.9131 16.3076 38.1769V20.9462Z" fill="#FFD01D"/>
<path d="M32.4829 23.2587C33.5025 23.2587 34.329 22.4322 34.329 21.4126C34.329 20.393 33.5025 19.5664 32.4829 19.5664C31.4633 19.5664 30.6367 20.393 30.6367 21.4126C30.6367 22.4322 31.4633 23.2587 32.4829 23.2587Z" fill="#00A1F1"/>
<path d="M23.6919 23.2587C24.7115 23.2587 25.538 22.4322 25.538 21.4126C25.538 20.393 24.7115 19.5664 23.6919 19.5664C22.6723 19.5664 21.8457 20.393 21.8457 21.4126C21.8457 22.4322 22.6723 23.2587 23.6919 23.2587Z" fill="#00A1F1"/>
<path d="M23.6883 20.3864C23.6883 20.3864 23.0477 13.2284 27.8829 13.0214C33.198 12.7937 32.5431 19.4182 32.5722 20.3833" stroke="#00A1F1" stroke-width="1.44" stroke-miterlimit="10" stroke-linecap="round"/>
<defs>
<filter id="filter0_d_489_467" x="0.4" y="0.799902" width="55.2" height="55.2" filterUnits="userSpaceOnUse" color-interpolation-filters="sRGB">
<feFlood flood-opacity="0" result="BackgroundImageFix"/>
<feColorMatrix in="SourceAlpha" type="matrix" values="0 0 0 0 0 0 0 0 0 0 0 0 0 0 0 0 0 0 127 0" result="hardAlpha"/>
<feOffset/>
<feGaussianBlur stdDeviation="1.8"/>
<feComposite in2="hardAlpha" operator="out"/>
<feColorMatrix type="matrix" values="0 0 0 0 0 0 0 0 0 0 0 0 0 0 0 0 0 0 0.2 0"/>
<feBlend mode="normal" in2="BackgroundImageFix" result="effect1_dropShadow_489_467"/>
<feBlend mode="normal" in="SourceGraphic" in2="effect1_dropShadow_489_467" result="shape"/>
</filter>
</defs>
</svg>
