<svg width="53" height="53" viewBox="0 0 53 53" fill="none" xmlns="http://www.w3.org/2000/svg">
<path d="M42.3246 36.7913C42.7876 37.0924 42.9209 37.7135 42.5969 38.1607C40.7743 40.6768 38.3842 42.7345 35.6151 44.1635C32.5493 45.7455 29.1245 46.5024 25.6775 46.3597C22.2306 46.2169 18.8801 45.1794 15.9556 43.3493C13.0312 41.5191 10.6334 38.9593 8.99815 35.9216C7.36288 32.8839 6.54643 29.4728 6.62908 26.0239C6.71174 22.5749 7.69065 19.2069 9.46955 16.251C11.2485 13.295 13.7661 10.853 16.7749 9.16507C19.4925 7.64046 22.5262 6.77844 25.6301 6.64248C26.1818 6.61832 26.6269 7.07157 26.6233 7.62384L26.5654 16.4919C26.5618 17.0442 26.1098 17.4832 25.5605 17.5408C24.345 17.6683 23.1644 18.0422 22.0924 18.6436C20.7288 19.4086 19.5878 20.5153 18.7815 21.855C17.9753 23.1947 17.5317 24.7211 17.4942 26.2842C17.4567 27.8473 17.8268 29.3933 18.5679 30.77C19.309 32.1468 20.3957 33.3069 21.7211 34.1364C23.0466 34.9658 24.565 35.436 26.1273 35.5007C27.6895 35.5654 29.2416 35.2224 30.6311 34.5054C31.7234 33.9417 32.6856 33.1622 33.4613 32.2177C33.8119 31.7909 34.4272 31.6554 34.8902 31.9565L42.3246 36.7913Z" fill="#00A1F1"/>
<path d="M29.1979 7.8169C29.2768 7.27029 29.7847 6.88861 30.3266 6.99492C34.4637 7.80645 38.2452 9.91507 41.1145 13.0275C43.9837 16.14 45.7783 20.0802 46.2512 24.2695C46.3132 24.8183 45.8916 25.2935 45.3403 25.3278L36.4892 25.8784C35.938 25.9127 35.469 25.4919 35.3738 24.9478C35.0773 23.2524 34.2996 21.6697 33.1236 20.3939C31.9475 19.1182 30.4332 18.2145 28.7674 17.7813C28.2329 17.6423 27.8516 17.1407 27.9305 16.5941L29.1979 7.8169Z" fill="#73D1FF"/>
<path d="M45.3424 27.6375C45.8937 27.6708 46.3162 28.1451 46.2553 28.694C46.037 30.6593 45.5267 32.581 44.7413 34.3957C44.5219 34.9025 43.9197 35.1047 43.4245 34.8601L35.4734 30.9326C34.9783 30.688 34.7809 30.0896 34.9691 29.5704C35.1499 29.0718 35.2862 28.5583 35.3766 28.0357C35.4708 27.4915 35.939 27.0699 36.4903 27.1032L45.3424 27.6375Z" fill="#88D8FF"/>
</svg>
