<svg width="56" height="56" viewBox="0 0 56 56" fill="none" xmlns="http://www.w3.org/2000/svg">
<g filter="url(#filter0_d_489_505)">
<rect x="4" y="3.6001" width="48" height="48" rx="18" fill="white"/>
</g>
<g clip-path="url(#clip0_489_505)">
<path d="M17.5476 27.8433H39.7373C40.3918 27.8433 40.9236 28.3802 40.9236 29.0425V35.0662H16.3613V29.0425C16.3613 28.3809 16.8925 27.8433 17.5476 27.8433Z" fill="#00A1F1"/>
<path d="M39.5073 30.8169H39.0811C38.3341 30.8169 37.7285 31.4291 37.7285 32.1843V36.6718C37.7285 37.427 38.3341 38.0392 39.0811 38.0392H39.5073C40.2543 38.0392 40.8598 37.427 40.8598 36.6718V32.1843C40.8598 31.4291 40.2543 30.8169 39.5073 30.8169Z" fill="#00A1F1"/>
<path d="M18.0864 30.8391H17.6602C16.9132 30.8391 16.3076 31.4513 16.3076 32.2065V36.6941C16.3076 37.4492 16.9132 38.0614 17.6602 38.0614H18.0864C18.8334 38.0614 19.4389 37.4492 19.4389 36.6941V32.2065C19.4389 31.4513 18.8334 30.8391 18.0864 30.8391Z" fill="#00A1F1"/>
<path d="M38.6397 25.4336H18.6454C18.3988 25.4336 18.2123 25.2079 18.2565 24.9624L19.1709 19.8567C19.3252 18.9956 20.0669 18.3691 20.9332 18.3691H36.3526C37.2182 18.3691 37.9606 18.9956 38.1149 19.8567L39.0292 24.9624C39.0735 25.2079 38.8863 25.4336 38.6397 25.4336Z" fill="#00A1F1"/>
<path d="M19.0582 24.0432C19.0582 24.0432 16.3386 26.0198 16.362 29.0134C16.3854 32.0071 16.362 32.0064 16.362 32.0064H40.923V28.6714C40.923 28.6714 40.8616 26.0038 37.853 24.0164L19.0582 24.0432Z" fill="#00A1F1"/>
<path d="M36.2575 24.5652H21.0266C20.8388 24.5652 20.6965 24.4232 20.73 24.2692L21.4268 21.0582C21.5445 20.5167 22.1098 20.1223 22.7693 20.1223H34.5155C35.175 20.1223 35.7403 20.5161 35.8579 21.0582L36.5547 24.2692C36.5882 24.4232 36.446 24.5652 36.2582 24.5652H36.2575Z" fill="#FFD01D"/>
<path d="M20.9932 32.4453C21.8635 32.4453 22.569 31.7321 22.569 30.8523C22.569 29.9725 21.8635 29.2593 20.9932 29.2593C20.123 29.2593 19.4175 29.9725 19.4175 30.8523C19.4175 31.7321 20.123 32.4453 20.9932 32.4453Z" fill="#FFD01D"/>
<path d="M36.4522 32.4453C37.3225 32.4453 38.028 31.7321 38.028 30.8523C38.028 29.9725 37.3225 29.2593 36.4522 29.2593C35.582 29.2593 34.8765 29.9725 34.8765 30.8523C34.8765 31.7321 35.582 32.4453 36.4522 32.4453Z" fill="#FFD01D"/>
<path d="M32.0388 29.5505H25.2451C24.5728 29.5505 24.0278 30.1013 24.0278 30.7808C24.0278 31.4602 24.5728 32.011 25.2451 32.011H32.0388C32.7111 32.011 33.2561 31.4602 33.2561 30.7808C33.2561 30.1013 32.7111 29.5505 32.0388 29.5505Z" fill="#FFD01D"/>
</g>
<defs>
<filter id="filter0_d_489_505" x="0.4" y="9.75132e-05" width="55.2" height="55.2" filterUnits="userSpaceOnUse" color-interpolation-filters="sRGB">
<feFlood flood-opacity="0" result="BackgroundImageFix"/>
<feColorMatrix in="SourceAlpha" type="matrix" values="0 0 0 0 0 0 0 0 0 0 0 0 0 0 0 0 0 0 127 0" result="hardAlpha"/>
<feOffset/>
<feGaussianBlur stdDeviation="1.8"/>
<feComposite in2="hardAlpha" operator="out"/>
<feColorMatrix type="matrix" values="0 0 0 0 0 0 0 0 0 0 0 0 0 0 0 0 0 0 0.2 0"/>
<feBlend mode="normal" in2="BackgroundImageFix" result="effect1_dropShadow_489_505"/>
<feBlend mode="normal" in="SourceGraphic" in2="effect1_dropShadow_489_505" result="shape"/>
</filter>
<clipPath id="clip0_489_505">
<rect width="24.6154" height="19.6923" fill="white" transform="translate(16.3076 18.3691)"/>
</clipPath>
</defs>
</svg>
