<svg width="307" height="58" viewBox="0 0 307 58" fill="none" xmlns="http://www.w3.org/2000/svg">
<path fill-rule="evenodd" clip-rule="evenodd" d="M254.168 11.8514L258.589 2.16964C259.292 0.630721 261.469 0.605288 262.208 2.12737L266.927 11.8514H291C299.284 11.8514 306 18.5672 306 26.8514V42C306 50.2843 299.284 57 291 57H16C7.71573 57 1 50.2843 1 42V26.8514C1 18.5672 7.71573 11.8514 16 11.8514H254.168Z" fill="#FFD01D"/>
<path d="M258.589 2.16964L259.272 2.48121V2.48121L258.589 2.16964ZM254.168 11.8514V12.6014H254.65L254.85 12.163L254.168 11.8514ZM262.208 2.12737L262.883 1.79994V1.79994L262.208 2.12737ZM266.927 11.8514L266.252 12.1789L266.457 12.6014H266.927V11.8514ZM257.907 1.85807L253.486 11.5399L254.85 12.163L259.272 2.48121L257.907 1.85807ZM262.883 1.79994C261.867 -0.29291 258.874 -0.257947 257.907 1.85807L259.272 2.48121C259.711 1.51939 261.072 1.50349 261.533 2.45479L262.883 1.79994ZM267.601 11.524L262.883 1.79994L261.533 2.45479L266.252 12.1789L267.601 11.524ZM266.927 12.6014H291V11.1014H266.927V12.6014ZM291 12.6014C298.87 12.6014 305.25 18.9814 305.25 26.8514H306.75C306.75 18.153 299.698 11.1014 291 11.1014V12.6014ZM305.25 26.8514V42H306.75V26.8514H305.25ZM305.25 42C305.25 49.8701 298.87 56.25 291 56.25V57.75C299.698 57.75 306.75 50.6985 306.75 42H305.25ZM291 56.25H16V57.75H291V56.25ZM16 56.25C8.12994 56.25 1.75 49.8701 1.75 42H0.25C0.25 50.6985 7.30152 57.75 16 57.75V56.25ZM1.75 42V26.8514H0.25V42H1.75ZM1.75 26.8514C1.75 18.9814 8.12994 12.6014 16 12.6014V11.1014C7.30152 11.1014 0.25 18.153 0.25 26.8514H1.75ZM16 12.6014H254.168V11.1014H16V12.6014Z" fill="#FFC335"/>
</svg>
